HIERARCHY
ROOT SpineBase
{
  OFFSET 0.000000 0.000000 0.000000
  CHANNELS 6 Xposition Yposition Zposition Zrotation Xrotation Yrotation
  JOINT SpineMid
  {
    OFFSET 0.000000 29.746072 0.000000
    CHANNELS 3 Zrotation Xrotation Yrotation
    JOINT SpineShoulder
    {
      OFFSET -0.189629 22.155926 -0.580051
      CHANNELS 3 Zrotation Xrotation Yrotation
      JOINT Neck
      {
        OFFSET -0.197935 7.373543 -0.471682
        CHANNELS 3 Zrotation Xrotation Yrotation
        JOINT Head
        {
          OFFSET 5.355387 12.562471 -1.805405
          CHANNELS 3 Zrotation Xrotation Yrotation
          End Site
          {
            OFFSET 0 0 0
          }
        }
      }
      JOINT ShoulderLeft
      {
        OFFSET -15.806799 -1.649899 -4.847041
        CHANNELS 3 Zrotation Xrotation Yrotation
        JOINT ElbowLeft
        {
          OFFSET -6.511950 -20.533086 -2.695260
          CHANNELS 3 Zrotation Xrotation Yrotation
          JOINT WristLeft
          {
            OFFSET 0.283076 -20.815822 -6.082212
            CHANNELS 3 Zrotation Xrotation Yrotation
            JOINT HandLeft
            {
              OFFSET 0.032304 -5.569008 -1.324389
              CHANNELS 3 Zrotation Xrotation Yrotation
              JOINT HandTipLeft
              {
                OFFSET 1.077772 -6.276368 -2.083087
                CHANNELS 3 Zrotation Xrotation Yrotation
                End Site
                {
                  OFFSET 0 0 0
                }
              }
              JOINT ThumbLeft
              {
                OFFSET 2.589091 1.915494 1.091902
                CHANNELS 3 Zrotation Xrotation Yrotation
                End Site
                {
                  OFFSET 0 0 0
                }
              }
            }
          }
        }
      }
      JOINT ShoulderRight
      {
        OFFSET 16.190287 -6.655863 4.588954
        CHANNELS 3 Zrotation Xrotation Yrotation
        JOINT ElbowRight
        {
          OFFSET 0.344761 -20.970181 3.069878
          CHANNELS 3 Zrotation Xrotation Yrotation
          JOINT WristRight
          {
            OFFSET -4.321744 13.261445 7.387978
            CHANNELS 3 Zrotation Xrotation Yrotation
            JOINT HandRight
            {
              OFFSET 1.200362 -0.589354 -11.154175
              CHANNELS 3 Zrotation Xrotation Yrotation
              JOINT HandTipRight
              {
                OFFSET 0.040641 1.630591 -1.032458
                CHANNELS 3 Zrotation Xrotation Yrotation
                End Site
                {
                  OFFSET 0 0 0
                }
              }
              JOINT ThumbRight
              {
                OFFSET -0.349716 1.652145 -1.176725
                CHANNELS 3 Zrotation Xrotation Yrotation
                End Site
                {
                  OFFSET 0 0 0
                }
              }
            }
          }
        }
      }
    }
  }
  JOINT HipLeft
  {
    OFFSET -7.821344 1.475957 -4.650494
    CHANNELS 3 Zrotation Xrotation Yrotation
    JOINT KneeLeft
    {
      OFFSET -7.207866 -27.981084 -0.931769
      CHANNELS 3 Zrotation Xrotation Yrotation
      JOINT AnkleLeft
      {
        OFFSET -3.027586 -35.264551 10.084175
        CHANNELS 3 Zrotation Xrotation Yrotation
        JOINT FootLeft
        {
          OFFSET 1.551917 -1.957156 -10.320668
          CHANNELS 3 Zrotation Xrotation Yrotation
          End Site
          {
            OFFSET 0 0 0
          }
        }
      }
    }
  }
  JOINT HipRight
  {
    OFFSET 6.111381 0.650530 -1.754988
    CHANNELS 3 Zrotation Xrotation Yrotation
    JOINT KneeRight
    {
      OFFSET -2.847079 -26.852469 -1.103077
      CHANNELS 3 Zrotation Xrotation Yrotation
      JOINT AnkleRight
      {
        OFFSET -2.780765 -36.533940 5.326816
        CHANNELS 3 Zrotation Xrotation Yrotation
        JOINT FootRight
        {
          OFFSET 1.872391 -0.775624 -11.315247
          CHANNELS 3 Zrotation Xrotation Yrotation
          End Site
          {
            OFFSET 0 0 0
          }
        }
      }
    }
  }
}
MOTION
Frames: 10
Frame Time: 0.033333
82.807384 66.683995 327.525700 -3.937435 1.408731 7.730601 0.400884 -0.965675 -7.788370 -0.817273 -0.572639 -0.212342 18.263923 -3.525254 4.485980 0.000000 0.000000 0.000000 7.638938 -5.188515 1.677588 -11.126552 6.157178 1.984522 5.124045 -9.372796 -1.959692 -5.905767 12.553561 4.254683 0.000000 0.000000 0.000000 0.000000 0.000000 0.000000 25.087759 21.480931 -0.304783 -24.293044 -29.350600 -11.169903 -9.810494 33.937487 43.260467 45.852573 15.197897 -8.283289 0.000000 0.000000 0.000000 0.000000 0.000000 0.000000 9.431532 -2.701423 -7.576938 -3.226062 -0.453992 0.964871 -5.502020 2.796080 15.475347 0.000000 0.000000 0.000000 6.505220 -4.710717 -7.332002 -0.130829 -2.125458 0.711447 -4.383008 -6.521405 16.488641 0.000000 0.000000 0.000000
82.863445 66.629581 327.556441 -4.034750 1.254681 8.806573 0.199143 -0.957147 -8.883002 -0.769580 -0.497000 -0.217845 19.355538 -3.717590 4.816805 0.000000 0.000000 0.000000 8.149443 -5.945727 1.967394 -11.986790 5.756832 2.047358 5.762991 -10.782883 -2.267061 -6.710934 11.145233 4.041285 0.000000 0.000000 0.000000 0.000000 0.000000 0.000000 23.816497 23.486709 -0.568753 -23.174623 -31.095572 -11.031230 -9.635028 34.026538 43.693486 44.973081 13.868284 -9.100894 0.000000 0.000000 0.000000 0.000000 0.000000 0.000000 9.481405 -2.221660 -8.817055 -3.145688 -0.944390 1.084478 -5.905000 -2.468981 17.273833 0.000000 0.000000 0.000000 6.756080 -5.036455 -8.375225 -0.570766 -1.840684 0.667183 -4.116345 -2.638480 17.946424 0.000000 0.000000 0.000000
82.983187 66.562607 327.636744 -4.080499 1.044218 9.785904 0.039875 -0.867147 -9.877234 -0.646755 -0.409631 -0.213617 20.165299 -4.106910 5.219061 0.000000 0.000000 0.000000 8.429765 -6.670917 2.235028 -12.418335 5.101525 1.955731 6.103576 -11.308250 -2.465225 -8.490438 8.661084 4.171842 0.000000 0.000000 0.000000 0.000000 0.000000 0.000000 22.721527 24.826579 -0.704064 -22.247325 -32.201800 -10.820189 -9.353550 33.957781 43.635055 44.571638 13.661675 -9.733702 0.000000 0.000000 0.000000 0.000000 0.000000 0.000000 9.437691 -1.560624 -10.000204 -3.040929 -1.501635 1.200720 -6.057929 -7.056945 18.928672 0.000000 0.000000 0.000000 6.978546 -5.260886 -9.335353 -1.068765 -1.487028 0.614129 -3.911810 -4.800193 18.587985 0.000000 0.000000 0.000000
83.168173 66.478853 327.766264 -4.072282 0.766773 10.643581 -0.130026 -0.770126 -10.751293 -0.559661 -0.362696 -0.214032 20.919830 -4.334751 5.550607 0.000000 0.000000 0.000000 8.699854 -7.311010 2.505272 -12.795243 4.557468 1.851036 6.570094 -10.455886 -2.627345 -9.750583 6.201400 4.125608 0.000000 0.000000 0.000000 0.000000 0.000000 0.000000 21.750594 26.554840 -0.899180 -21.418955 -33.573296 -10.708557 -9.143967 33.465748 44.062816 43.948433 11.391818 -9.640678 0.000000 0.000000 0.000000 0.000000 0.000000 0.000000 9.336705 -0.752591 -11.087269 -2.934486 -2.157134 1.314929 -6.007338 -10.431205 20.230180 0.000000 0.000000 0.000000 7.137607 -5.333223 -10.193693 -1.592219 -1.195521 0.560755 -3.612957 -5.589522 19.351074 0.000000 0.000000 0.000000
83.376341 66.398989 327.911269 -4.044492 0.464820 11.371307 -0.263356 -0.683252 -11.493847 -0.504242 -0.355299 -0.217684 21.513321 -4.383190 5.764693 0.000000 0.000000 0.000000 8.875523 -7.802087 2.746054 -13.050090 4.111358 1.738802 7.002633 -8.543835 -2.737123 -12.438069 2.889234 4.620458 0.000000 0.000000 0.000000 0.000000 0.000000 0.000000 20.965866 28.431192 -1.118420 -20.765375 -35.013752 -10.682007 -8.610601 32.426684 43.819785 43.771710 9.617060 -8.935128 0.000000 0.000000 0.000000 0.000000 0.000000 0.000000 9.255093 0.008776 -12.019718 -2.868026 -2.653017 1.393226 -5.866628 -12.340224 21.041215 0.000000 0.000000 0.000000 7.273829 -5.340054 -10.930216 -2.101262 -0.872938 0.505130 -3.303861 -5.012053 20.139648 0.000000 0.000000 0.000000
83.572099 66.320431 328.055211 -4.025213 0.166147 11.942971 -0.332898 -0.602516 -12.077245 -0.483112 -0.370551 -0.223020 21.904341 -4.365060 5.900575 0.000000 0.000000 0.000000 8.990253 -8.160331 2.944623 -13.271889 3.835955 1.663234 7.857286 -6.507782 -2.936884 -13.575930 1.736230 4.820270 0.000000 0.000000 0.000000 0.000000 0.000000 0.000000 20.864702 29.293130 -1.265461 -20.620910 -35.590974 -10.749255 -8.176775 30.802770 44.064115 43.922807 7.962041 -9.101229 0.000000 0.000000 0.000000 0.000000 0.000000 0.000000 9.236551 0.648108 -12.756000 -2.846845 -3.040863 1.447073 -5.757581 -12.507745 21.645231 0.000000 0.000000 0.000000 7.459540 -5.302201 -11.515672 -2.629650 -0.580941 0.457161 -2.979613 -8.827678 20.103645 0.000000 0.000000 0.000000
83.769818 66.235722 328.184013 -3.982895 -0.126679 12.384977 -0.381242 -0.540237 -12.529451 -0.463524 -0.388359 -0.226976 22.061299 -4.375934 6.012374 0.000000 0.000000 0.000000 8.906986 -8.342777 3.088546 -13.333498 3.485529 1.580033 8.526037 -4.320968 -3.110482 -14.160498 -0.652283 4.390680 0.000000 0.000000 0.000000 0.000000 0.000000 0.000000 20.935942 29.786088 -1.392875 -20.638024 -35.839569 -10.830606 -7.998016 29.212803 45.151259 45.133456 8.579187 -11.396932 0.000000 0.000000 0.000000 0.000000 0.000000 0.000000 9.166282 1.148930 -13.312940 -2.829122 -3.218863 1.453009 -5.674006 -10.989332 21.906493 0.000000 0.000000 0.000000 7.562455 -5.188850 -11.980104 -3.050813 -0.362603 0.415339 -2.670385 -9.482168 20.673780 0.000000 0.000000 0.000000
83.941941 66.160579 328.284484 -3.932109 -0.390191 12.739409 -0.406324 -0.509387 -12.892580 -0.448399 -0.407312 -0.229791 22.015685 -4.349455 6.062552 0.000000 0.000000 0.000000 8.791252 -8.471820 3.210720 -13.272338 3.463144 1.488008 9.013694 -1.781427 -3.209216 -13.476861 -2.247675 3.665227 0.000000 0.000000 0.000000 0.000000 0.000000 0.000000 21.288535 30.258135 -1.564967 -20.946018 -35.989223 -11.011376 -8.220758 28.499332 46.536582 45.303636 6.927182 -12.213506 0.000000 0.000000 0.000000 0.000000 0.000000 0.000000 9.114126 1.589498 -13.766280 -2.834206 -3.301818 1.448358 -5.622495 -7.946345 21.759957 0.000000 0.000000 0.000000 7.574078 -5.025272 -12.361487 -3.280745 -0.253143 0.388119 -2.461250 -9.199850 21.310200 0.000000 0.000000 0.000000
84.085294 66.095280 328.344431 -3.889685 -0.610845 13.023920 -0.408884 -0.485807 -13.183583 -0.428542 -0.414687 -0.230427 21.869496 -4.397916 6.126103 0.000000 0.000000 0.000000 8.664224 -8.594932 3.314982 -13.161491 3.846410 1.424386 9.360830 -0.072288 -3.264101 -12.516893 -2.939027 3.133042 0.000000 0.000000 0.000000 0.000000 0.000000 0.000000 25.542395 29.994871 -2.188558 -25.237436 -35.491860 -12.830031 -8.080381 25.792289 48.361752 48.699470 8.733899 -15.199120 0.000000 0.000000 0.000000 0.000000 0.000000 0.000000 9.131133 1.926654 -14.129237 -2.918116 -3.384011 1.436746 -5.534212 -3.592245 21.165356 0.000000 0.000000 0.000000 7.502284 -4.853012 -12.671235 -3.325913 -0.250364 0.373452 -2.410549 -5.798753 22.294879 0.000000 0.000000 0.000000
84.172761 66.054739 328.358853 -3.876766 -0.785501 13.206796 -0.397200 -0.496719 -13.373009 -0.406211 -0.415573 -0.230691 21.678395 -4.278422 6.072300 0.000000 0.000000 0.000000 8.513436 -8.606299 3.374507 -12.978991 4.288638 1.369143 9.576146 0.857910 -3.285581 -11.811651 -4.662906 2.432234 0.000000 0.000000 0.000000 0.000000 0.000000 0.000000 27.007379 29.363684 -2.326045 -26.370031 -34.715994 -13.229487 -8.403850 25.397011 48.754606 49.850605 9.706681 -15.586351 0.000000 0.000000 0.000000 0.000000 0.000000 0.000000 9.279673 2.117205 -14.364286 -3.159530 -3.441758 1.403797 -5.312612 1.606763 20.147234 0.000000 0.000000 0.000000 7.464188 -4.699640 -12.875364 -3.225162 -0.077154 0.361095 -2.444357 -6.642507 22.362003 0.000000 0.000000 0.000000
